<svg xmlns="http://www.w3.org/2000/svg" xmlns:svg="http://www.w3.org/2000/svg" xmlns:xlink="http://www.w3.org/1999/xlink" id="svg5" width="1024" height="1024" version="1.1" viewBox="0 0 270.933 270.933"><title id="title5040">Bluechirp Logo</title><defs id="defs2"><linearGradient id="linearGradient25"><stop style="stop-color:#16d9bc;stop-opacity:1" id="stop24" offset="0"/><stop style="stop-color:#43828b;stop-opacity:1" id="stop25" offset="1"/></linearGradient><linearGradient id="linearGradient3614"><stop style="stop-color:#308fa3;stop-opacity:1" id="stop3610" offset="0"/><stop style="stop-color:#274652;stop-opacity:1" id="stop3612" offset="1"/></linearGradient><linearGradient id="linearGradient1944"><stop style="stop-color:#44cded;stop-opacity:1" id="stop1940" offset="0"/><stop style="stop-color:#2c515c;stop-opacity:1" id="stop1942" offset="1"/></linearGradient><linearGradient id="linearGradient8185"><stop style="stop-color:#4addfc;stop-opacity:1" id="stop8181" offset="0"/><stop style="stop-color:#1f8ab3;stop-opacity:1" id="stop8183" offset="1"/></linearGradient><linearGradient id="linearGradient11231" x1="77.278" x2="178.722" y1="77.278" y2="178.722" gradientTransform="matrix(1.1,0,0,1.1,-12.799957,-31.211863)" gradientUnits="userSpaceOnUse" xlink:href="#linearGradient8185"/><linearGradient id="linearGradient1179" x1="77.278" x2="178.722" y1="77.278" y2="178.722" gradientTransform="translate(23.987688,12.961289)" gradientUnits="userSpaceOnUse" xlink:href="#linearGradient1944"/><linearGradient id="linearGradient3522" x1="77.278" x2="178.722" y1="77.278" y2="178.722" gradientTransform="matrix(0.81,0,0,0.81,13.961366,68.654472)" gradientUnits="userSpaceOnUse" xlink:href="#linearGradient3614"/><filter style="color-interpolation-filters:sRGB" id="filter4620" width="1.228" height="1.228" x="-.095" y="-.095"><feFlood id="feFlood4610" flood-color="#000" flood-opacity=".251" result="flood"/><feComposite id="feComposite4612" in="flood" in2="SourceGraphic" operator="in" result="composite1"/><feGaussianBlur id="feGaussianBlur4614" in="composite1" result="blur" stdDeviation="6.231"/><feOffset id="feOffset4616" dx="6" dy="6" result="offset"/><feComposite id="feComposite4618" in="SourceGraphic" in2="offset" operator="over" result="composite2"/></filter><filter style="color-interpolation-filters:sRGB" id="filter4722" width="1.209" height="1.209" x="-.125" y="-.084"><feFlood id="feFlood4712" flood-color="#000" flood-opacity=".157" result="flood"/><feComposite id="feComposite4714" in="flood" in2="SourceGraphic" operator="in" result="composite1"/><feGaussianBlur id="feGaussianBlur4716" in="composite1" result="blur" stdDeviation="5"/><feOffset id="feOffset4718" dx="-6" dy="6" result="offset"/><feComposite id="feComposite4720" in="SourceGraphic" in2="offset" operator="over" result="composite2"/></filter><clipPath id="clipPath4870" clipPathUnits="userSpaceOnUse"><use id="use4872" x="0" y="0" xlink:href="#g4866"/></clipPath><linearGradient id="linearGradient2" x1="55.968" x2="214.965" y1="88.547" y2="214.965" gradientUnits="userSpaceOnUse" xlink:href="#linearGradient8185"/><linearGradient id="linearGradient16" x1="214.965" x2="55.968" y1="88.547" y2="214.965" gradientUnits="userSpaceOnUse" xlink:href="#linearGradient25"/><clipPath id="clipPath17" clipPathUnits="userSpaceOnUse"><use id="use17" x="0" y="0" xlink:href="#g16"/></clipPath><filter style="color-interpolation-filters:sRGB" id="filter24" width="1.242" height="1.232" x="-.121" y="-.116"><feFlood id="feFlood23" flood-color="#000" flood-opacity=".249" in="SourceGraphic" result="flood"/><feGaussianBlur id="feGaussianBlur23" in="SourceGraphic" result="blur" stdDeviation="8"/><feOffset id="feOffset23" dx="0" dy="0" in="blur" result="offset"/><feComposite id="feComposite23" in="flood" in2="offset" operator="in" result="comp1"/><feComposite id="feComposite24" in="SourceGraphic" in2="comp1" operator="over" result="comp2"/></filter></defs><g id="layer1" transform="matrix(1.2456885,0,0,1.2456885,-37.520898,-34.166836)"><g id="g4868" clip-path="url(#clipPath4870)" transform="translate(3.5080139,5.1270971)" style="display:none"><g id="g4866"><path id="circle3520" style="fill:url(#linearGradient3522);stroke-width:.85698;stroke-miterlimit:14.6" d="m 175.74406,172.33446 a 58.102707,58.102707 0 0 1 -58.10271,58.1027 58.102707,58.102707 0 0 1 -58.102707,-58.1027 58.102707,58.102707 0 0 1 58.102707,-58.10271 58.102707,58.102707 0 0 1 58.10271,58.10271 z"/><path id="circle1177" style="fill:url(#linearGradient1179);stroke-width:1.058;stroke-miterlimit:14.6;filter:url(#filter4722)" d="M 223.71942,140.96127 A 71.731735,71.731735 0 0 1 151.98769,212.69301 71.731735,71.731735 0 0 1 80.255951,140.96127 71.731735,71.731735 0 0 1 151.98769,69.229538 71.731735,71.731735 0 0 1 223.71942,140.96127 Z"/><path id="path6596" style="fill:url(#linearGradient11231);stroke-width:1.1638;stroke-miterlimit:14.6;filter:url(#filter4620)" d="M 206.90489,109.5881 A 78.904892,78.904892 0 0 1 128,188.49299 78.904892,78.904892 0 0 1 49.095108,109.5881 78.904892,78.904892 0 0 1 128,30.683205 78.904892,78.904892 0 0 1 206.90489,109.5881 Z"/><g id="g6401"><path id="path5724" style="fill:#fff;stroke-width:.780704;stroke-miterlimit:14.6" d="m 135.36129,131.04914 a 10.410449,10.410449 0 0 1 1e-5,14.72259 10.410449,10.410449 0 0 1 -14.7226,0 10.410449,10.410449 0 0 1 1e-5,-14.72259 10.410449,10.410449 0 0 1 14.72258,0 z"/><path id="rect5821" style="fill:#fff;stroke-width:.938509;stroke-miterlimit:14.6" d="m 74.4405,84.851 c 2.2295,-2.2295 5.8192,-2.2295 8.0486,0 l 33.9629,33.963 c 2.229,2.229 2.229,5.819 0,8.048 -2.23,2.23 -5.819,2.23 -8.049,0 L 74.4405,92.8996 c -2.2294,-2.2295 -2.2294,-5.8192 0,-8.0486 z"/><path id="rect6209" style="fill:#fff;stroke-width:.938509;stroke-miterlimit:14.6" d="m 127.9999,62.638569 c 3.15294,0 5.69123,2.538291 5.69123,5.691234 v 48.030517 c 0,3.15295 -2.53829,5.69124 -5.69123,5.69124 -3.15295,0 -5.69124,-2.53829 -5.69124,-5.69124 V 68.329803 c 0,-3.152943 2.53829,-5.691234 5.69124,-5.691234 z"/><path id="rect6211" style="fill:#fff;stroke-width:.938509;stroke-miterlimit:14.6" d="m 181.571,84.839 c 2.23,2.2295 2.23,5.8192 0,8.0487 L 147.609,126.85 c -2.23,2.23 -5.819,2.23 -8.049,0 -2.229,-2.229 -2.229,-5.819 0,-8.048 l 33.963,-33.963 c 2.229,-2.2294 5.819,-2.2294 8.048,0 z"/></g></g></g><g id="g17" clip-path="url(#clipPath17)" transform="matrix(1.157535,0,0,1.157535,-12.956095,-27.029552)"><g id="g16"><path id="path14" style="display:inline;fill:url(#linearGradient16);fill-rule:evenodd;stroke-width:.264583" d="m 65.49316,88.546647 c -5.276844,0 -9.525,4.248156 -9.525,9.525 V 205.44017 c 0,5.27685 4.248156,9.525 9.525,9.525 h 86.54237 a 6.9871494,6.9871494 18.01941 0 1 4.11077,1.33721 l 50.77905,36.94573 c 3.14798,2.28941 7.56394,0.041 7.5644,-3.85145 v -34.43149 l 0.47542,-116.893523 c 0,-5.276844 -4.24815,-9.525 -9.525,-9.525 z" transform="matrix(-0.45956538,0,0,0.45956538,155.41618,95.483524)"/><path id="path8" style="fill:url(#linearGradient2);fill-rule:evenodd;stroke-width:.264583;filter:url(#filter24)" d="m 65.49316,88.546647 c -5.276844,0 -9.525,4.248156 -9.525,9.525 V 205.44017 c 0,5.27685 4.248156,9.525 9.525,9.525 h 86.54237 a 6.9871494,6.9871494 18.01941 0 1 4.11077,1.33721 l 50.77905,36.94573 c 3.14798,2.28941 7.56394,0.041 7.5644,-3.85145 v -34.43149 l 0.47542,-116.893523 c 0,-5.276844 -4.24815,-9.525 -9.525,-9.525 z" transform="matrix(0.80276892,0,0,0.80276892,33.131925,-1.38366)"/><rect style="fill:#f9f9f9;fill-rule:evenodd;stroke-width:.158774" id="rect25" width="87.757" height="11.785" x="98.002" y="90.511" rx="5.307" ry="5.893"/><rect style="fill:#f9f9f9;fill-rule:evenodd;stroke-width:.158774" id="rect26" width="87.757" height="11.785" x="98.002" y="113.344" rx="5.307" ry="5.893"/><rect style="fill:#f9f9f9;fill-rule:evenodd;stroke-width:.158774" id="rect27" width="87.757" height="11.785" x="98.002" y="136.177" rx="5.307" ry="5.893"/></g></g></g><metadata id="metadata5038"/></svg>