<svg xmlns="http://www.w3.org/2000/svg" xmlns:svg="http://www.w3.org/2000/svg" xmlns:xlink="http://www.w3.org/1999/xlink" id="svg5" width="1024" height="1024" version="1.1" viewBox="0 0 270.933 270.933"><title id="title5040">Bluechirp Logo</title><defs id="defs2"><linearGradient id="linearGradient3614"><stop style="stop-color:#308fa3;stop-opacity:1" id="stop3610" offset="0"/><stop style="stop-color:#274652;stop-opacity:1" id="stop3612" offset="1"/></linearGradient><linearGradient id="linearGradient1944"><stop style="stop-color:#44cded;stop-opacity:1" id="stop1940" offset="0"/><stop style="stop-color:#2c515c;stop-opacity:1" id="stop1942" offset="1"/></linearGradient><linearGradient id="linearGradient8185"><stop style="stop-color:#4addfc;stop-opacity:1" id="stop8181" offset="0"/><stop style="stop-color:#1f8ab3;stop-opacity:1" id="stop8183" offset="1"/></linearGradient><linearGradient id="linearGradient11231" x1="77.278" x2="178.722" y1="77.278" y2="178.722" gradientTransform="matrix(1.1,0,0,1.1,-12.799957,-31.211863)" gradientUnits="userSpaceOnUse" xlink:href="#linearGradient8185"/><linearGradient id="linearGradient1179" x1="77.278" x2="178.722" y1="77.278" y2="178.722" gradientTransform="translate(23.987688,12.961289)" gradientUnits="userSpaceOnUse" xlink:href="#linearGradient1944"/><linearGradient id="linearGradient3522" x1="77.278" x2="178.722" y1="77.278" y2="178.722" gradientTransform="matrix(0.81,0,0,0.81,13.961366,68.654472)" gradientUnits="userSpaceOnUse" xlink:href="#linearGradient3614"/><filter style="color-interpolation-filters:sRGB" id="filter4620" width="1.228" height="1.228" x="-.095" y="-.095"><feFlood id="feFlood4610" flood-color="#000" flood-opacity=".251" result="flood"/><feComposite id="feComposite4612" in="flood" in2="SourceGraphic" operator="in" result="composite1"/><feGaussianBlur id="feGaussianBlur4614" in="composite1" result="blur" stdDeviation="6.231"/><feOffset id="feOffset4616" dx="6" dy="6" result="offset"/><feComposite id="feComposite4618" in="SourceGraphic" in2="offset" operator="over" result="composite2"/></filter><filter style="color-interpolation-filters:sRGB" id="filter4722" width="1.209" height="1.209" x="-.125" y="-.084"><feFlood id="feFlood4712" flood-color="#000" flood-opacity=".157" result="flood"/><feComposite id="feComposite4714" in="flood" in2="SourceGraphic" operator="in" result="composite1"/><feGaussianBlur id="feGaussianBlur4716" in="composite1" result="blur" stdDeviation="5"/><feOffset id="feOffset4718" dx="-6" dy="6" result="offset"/><feComposite id="feComposite4720" in="SourceGraphic" in2="offset" operator="over" result="composite2"/></filter><clipPath id="clipPath4870" clipPathUnits="userSpaceOnUse"><use id="use4872" x="0" y="0" xlink:href="#g4866"/></clipPath></defs><g id="layer1" transform="matrix(1.2456885,0,0,1.2456885,-37.520898,-34.166836)"><g id="g4868" clip-path="url(#clipPath4870)" transform="translate(3.5080139,5.1270971)" style="display:inline"><g id="g4866"><path id="circle3520" style="fill:url(#linearGradient3522);stroke-width:.85698;stroke-miterlimit:14.6" d="m 175.74406,172.33446 a 58.102707,58.102707 0 0 1 -58.10271,58.1027 58.102707,58.102707 0 0 1 -58.102707,-58.1027 58.102707,58.102707 0 0 1 58.102707,-58.10271 58.102707,58.102707 0 0 1 58.10271,58.10271 z"/><path id="circle1177" style="fill:url(#linearGradient1179);stroke-width:1.058;stroke-miterlimit:14.6;filter:url(#filter4722)" d="M 223.71942,140.96127 A 71.731735,71.731735 0 0 1 151.98769,212.69301 71.731735,71.731735 0 0 1 80.255951,140.96127 71.731735,71.731735 0 0 1 151.98769,69.229538 71.731735,71.731735 0 0 1 223.71942,140.96127 Z"/><path id="path6596" style="fill:url(#linearGradient11231);stroke-width:1.1638;stroke-miterlimit:14.6;filter:url(#filter4620)" d="M 206.90489,109.5881 A 78.904892,78.904892 0 0 1 128,188.49299 78.904892,78.904892 0 0 1 49.095108,109.5881 78.904892,78.904892 0 0 1 128,30.683205 78.904892,78.904892 0 0 1 206.90489,109.5881 Z"/><g id="g6401"><path id="path5724" style="fill:#fff;stroke-width:.780704;stroke-miterlimit:14.6" d="m 135.36129,131.04914 a 10.410449,10.410449 0 0 1 1e-5,14.72259 10.410449,10.410449 0 0 1 -14.7226,0 10.410449,10.410449 0 0 1 1e-5,-14.72259 10.410449,10.410449 0 0 1 14.72258,0 z"/><path id="rect5821" style="fill:#fff;stroke-width:.938509;stroke-miterlimit:14.6" d="m 74.4405,84.851 c 2.2295,-2.2295 5.8192,-2.2295 8.0486,0 l 33.9629,33.963 c 2.229,2.229 2.229,5.819 0,8.048 -2.23,2.23 -5.819,2.23 -8.049,0 L 74.4405,92.8996 c -2.2294,-2.2295 -2.2294,-5.8192 0,-8.0486 z"/><path id="rect6209" style="fill:#fff;stroke-width:.938509;stroke-miterlimit:14.6" d="m 127.9999,62.638569 c 3.15294,0 5.69123,2.538291 5.69123,5.691234 v 48.030517 c 0,3.15295 -2.53829,5.69124 -5.69123,5.69124 -3.15295,0 -5.69124,-2.53829 -5.69124,-5.69124 V 68.329803 c 0,-3.152943 2.53829,-5.691234 5.69124,-5.691234 z"/><path id="rect6211" style="fill:#fff;stroke-width:.938509;stroke-miterlimit:14.6" d="m 181.571,84.839 c 2.23,2.2295 2.23,5.8192 0,8.0487 L 147.609,126.85 c -2.23,2.23 -5.819,2.23 -8.049,0 -2.229,-2.229 -2.229,-5.819 0,-8.048 l 33.963,-33.963 c 2.229,-2.2294 5.819,-2.2294 8.048,0 z"/></g></g></g></g><metadata id="metadata5038"/></svg>